<?xml version="1.0" encoding="utf-8"?>
<!-- Generator: Adobe Illustrator 16.0.3, SVG Export Plug-In . SVG Version: 6.00 Build 0)  -->
<!DOCTYPE svg PUBLIC "-//W3C//DTD SVG 1.1//EN" "http://www.w3.org/Graphics/SVG/1.1/DTD/svg11.dtd">
<svg version="1.1" id="Capa_1" xmlns="http://www.w3.org/2000/svg" xmlns:xlink="http://www.w3.org/1999/xlink" x="0px" y="0px"
	 width="320px" height="320px" viewBox="0 0 320 320" enable-background="new 0 0 320 320" xml:space="preserve">
<path fill="#DC3445" d="M135.976,148.141c0,0-28.07-1.096-37.341,0c-12.651,1.494-30.085,24.722-30.085,24.722l1.327,34.74h175.876
	l-1.107-34.412c0,0-8.502-24.178-23.643-25.05c-6.947-0.401-30.375,0-30.375,0H135.976z"/>
<path fill="none" d="M194.5,89.616"/>
<path fill="none" d="M102.167,89.616"/>
<path fill="none" d="M199.667,89.616"/>
<path fill="none" d="M102.167,89.616"/>
<path fill="none" d="M149.167,105.616"/>
<path fill="none" d="M149.167,105.616"/>
<path fill="#DC3445" d="M212.682,123.377l-54.875,50.091l-54.409-50.091c0,0-11.074-67.115,54.641-67.219
	C222.073,56.057,212.682,123.377,212.682,123.377z"/>
<path fill="none" stroke="#000000" stroke-miterlimit="10" d="M274,210.654"/>
<path fill="none" stroke="#000000" stroke-miterlimit="10" d="M248.625,78.242"/>
<path fill="#222222" d="M193.527,123.313l-36.458,33.279l-36.148-33.279c0,0-7.357-44.59,36.303-44.659
	C199.768,78.587,193.527,123.313,193.527,123.313z"/>
<polygon fill="#222121" points="91.514,173.468 91.514,200.334 100.18,200.334 "/>
<polygon fill="#222121" points="215.679,173.468 215.679,200.334 224.346,200.334 "/>
<path fill="#FFFFFF" d="M66.21,59.394c-1.196,1.478-1.468,6.389,0,7.597c1.934,1.591,8.235,1.753,10.022,0
	c1.356-1.332,1.345-6.253,0-7.597C74.46,57.625,67.785,57.448,66.21,59.394z"/>
<polygon fill="#FFFFFF" points="65.732,73.826 58.874,95.011 68.821,87.95 71.543,75.692 70.631,71.481 "/>
<polygon fill="#FFFFFF" points="240.125,62.71 224.625,78.242 240.125,94.599 240.125,89.204 232.375,78.654 240.125,68.713 "/>
<path fill="none" stroke="#000000" stroke-miterlimit="10" d="M243.375,79.066"/>
<polygon fill="#FFFFFF" points="251.875,94.598 267.375,79.066 251.875,62.71 251.875,68.105 259.625,78.654 251.875,88.596 "/>
</svg>
